<svg xmlns="http://www.w3.org/2000/svg" width="64" height="64" viewBox="0 0 64 64" fill="none">
  <rect width="64" height="64" rx="18" fill="#0E0E0E"/>
  <circle cx="32" cy="32" r="17" fill="rgba(255,255,255,0.06)" stroke="rgba(255,255,255,0.28)" stroke-width="2"/>
  <path d="M16 32H48" stroke="rgba(255,255,255,0.24)" stroke-width="2" stroke-linecap="round"/>
  <path d="M32 15C37 19.5 39.5 25 39.5 32C39.5 39 37 44.5 32 49" stroke="rgba(255,255,255,0.32)" stroke-width="2" stroke-linecap="round"/>
  <path d="M32 15C27 19.5 24.5 25 24.5 32C24.5 39 27 44.5 32 49" stroke="rgba(255,255,255,0.32)" stroke-width="2" stroke-linecap="round"/>
  <ellipse cx="32" cy="32" rx="22" ry="9" stroke="rgba(255,255,255,0.48)" stroke-width="2"/>
  <circle cx="54" cy="32" r="3.2" fill="#FFFFFF"/>
  <circle cx="20" cy="25.5" r="2.5" fill="#FFFFFF"/>
  <circle cx="38.5" cy="39" r="2.4" fill="#FFFFFF"/>
  <path d="M20 45L45 20" stroke="#0E0E0E" stroke-width="7" stroke-linecap="round"/>
  <path d="M20 45L45 20" stroke="#FFFFFF" stroke-width="3.2" stroke-linecap="round"/>
</svg>
